# xmcd
#
# Track frame offsets:
#	150
#	21820
#	38073
#	51836
#	69646
#	84063
#	102211
#	122105
#	142707
#	166425
#	188559
#	209078
#	229464
#	240728
#	261900
#	284140
#	303161
#	322095
#
# Disc length: 4600
#
# Revision: 4
# Processed by: cddbd v1.5.1PL0 Copyright (c) Steve Scherf et al.
# Submitted via: audiograbber 1.81.02
# Normalized: r2:DSETVAR1,TSWAP
#
DISCID=0411f612
DTITLE=Various Artist - Damn Right We Got The Blues
DYEAR=1900
DGENRE=Blues
TTITLE0=Joe Louis Walker - I'm Not Messin' Around
TTITLE1=B.B. King - I Got To Leave This Woman
TTITLE2=Eric Clapton - I'm Tore Down
TTITLE3=Keb' Mo' - The Door
TTITLE4=Robert Cray Band - Trick or Treat
TTITLE5=Stevie Ray Vaughan - Cold Shot
TTITLE6=Dave Hole - Jenny Lee
TTITLE7=Jimmy Smith - Only In It For The Money
TTITLE8=John Butler Trio - Betterman
TTITLE9=Johnny Winter - Mojo Boogie
TTITLE10=Lucky Peterson - I'm Ready
TTITLE11=Jonny Lang - Angel Of Mercy
TTITLE12=Corey Harris - Diddy Wah Diddy
TTITLE13=Dr John - Imitation of Love
TTITLE14=Ronnie Earl And The Broadcasters - I Liked That Thing You Did
TTITLE15=Robben Ford And The Blue Line - Tired of Talkin'
TTITLE16=Tony Joe White - Crack The Window Baby
TTITLE17=Tommy Castro - Guilty Of Love
EXTD=ID3G: 0
EXTT0=
EXTT1=
EXTT2=
EXTT3=
EXTT4=
EXTT5=
EXTT6=
EXTT7=
EXTT8=
EXTT9=
EXTT10=
EXTT11=
EXTT12=
EXTT13=
EXTT14=
EXTT15=
EXTT16=
EXTT17=
PLAYORDER=
